<?xml version="1.0" encoding="UTF-8"?>
<svg xmlns="http://www.w3.org/2000/svg" xmlns:xlink="http://www.w3.org/1999/xlink" width="280.001984pt" height="280.001984pt" viewBox="0 0 280.001984 280.001984" version="1.1">
<g id="surface1">
<path style=" stroke:none;fill-rule:nonzero;fill:rgb(100%,100%,100%);fill-opacity:1;" d="M 272.417969 140 C 272.417969 175.117188 258.464844 208.800781 233.632813 233.632813 C 208.800781 258.464844 175.121094 272.417969 140 272.417969 C 104.882813 272.417969 71.199219 258.464844 46.367188 233.632813 C 21.535156 208.800781 7.582031 175.117188 7.582031 140 C 7.582031 104.878906 21.535156 71.199219 46.367188 46.367188 C 71.199219 21.535156 104.882813 7.582031 140 7.582031 C 175.121094 7.582031 208.800781 21.535156 233.632813 46.367188 C 258.464844 71.199219 272.417969 104.878906 272.417969 140 "/>
<path style="fill:none;stroke-width:4.46;stroke-linecap:butt;stroke-linejoin:miter;stroke:rgb(100%,0%,0%);stroke-opacity:1;stroke-miterlimit:4;" d="M 272.417969 140 C 272.417969 175.117188 258.464844 208.800781 233.632813 233.632813 C 208.800781 258.464844 175.121094 272.417969 140 272.417969 C 104.882813 272.417969 71.199219 258.464844 46.367188 233.632813 C 21.535156 208.800781 7.582031 175.117188 7.582031 140 C 7.582031 104.878906 21.535156 71.199219 46.367188 46.367188 C 71.199219 21.535156 104.882813 7.582031 140 7.582031 C 175.121094 7.582031 208.800781 21.535156 233.632813 46.367188 C 258.464844 71.199219 272.417969 104.878906 272.417969 140 Z M 272.417969 140 "/>
<path style=" stroke:none;fill-rule:nonzero;fill:rgb(0%,18.03894%,37.646484%);fill-opacity:1;" d="M 140 9.8125 C 174.527344 9.8125 207.640625 23.527344 232.054688 47.945313 C 256.472656 72.359375 270.1875 105.472656 270.1875 140 C 270.1875 174.527344 256.472656 207.640625 232.054688 232.054688 C 207.640625 256.472656 174.527344 270.1875 140 270.1875 C 105.472656 270.1875 72.359375 256.472656 47.945313 232.054688 C 23.527344 207.640625 9.8125 174.527344 9.8125 140 C 9.8125 105.472656 23.527344 72.359375 47.945313 47.945313 C 72.359375 23.527344 105.472656 9.8125 140 9.8125 M 140 5.351563 C 104.289063 5.351563 70.042969 19.539063 44.789063 44.789063 C 19.539063 70.039063 5.351563 104.289063 5.351563 140 C 5.351563 175.710938 19.539063 209.960938 44.789063 235.210938 C 70.042969 260.460938 104.289063 274.648438 140 274.648438 C 175.710938 274.648438 209.960938 260.460938 235.210938 235.210938 C 260.460938 209.960938 274.648438 175.710938 274.648438 140 C 274.648438 104.289063 260.460938 70.039063 235.210938 44.789063 C 209.960938 19.539063 175.710938 5.351563 140 5.351563 "/>
<path style="fill:none;stroke-width:10.706001;stroke-linecap:butt;stroke-linejoin:miter;stroke:rgb(0%,18.03894%,37.646484%);stroke-opacity:1;stroke-miterlimit:4;" d="M 140 9.8125 C 174.527344 9.8125 207.640625 23.527344 232.054688 47.945313 C 256.472656 72.359375 270.1875 105.472656 270.1875 140 C 270.1875 174.527344 256.472656 207.640625 232.054688 232.054688 C 207.640625 256.472656 174.527344 270.1875 140 270.1875 C 105.472656 270.1875 72.359375 256.472656 47.945313 232.054688 C 23.527344 207.640625 9.8125 174.527344 9.8125 140 C 9.8125 105.472656 23.527344 72.359375 47.945313 47.945313 C 72.359375 23.527344 105.472656 9.8125 140 9.8125 Z M 140 5.351563 C 104.289063 5.351563 70.042969 19.539063 44.789063 44.789063 C 19.539063 70.039063 5.351563 104.289063 5.351563 140 C 5.351563 175.710938 19.539063 209.960938 44.789063 235.210938 C 70.042969 260.460938 104.289063 274.648438 140 274.648438 C 175.710938 274.648438 209.960938 260.460938 235.210938 235.210938 C 260.460938 209.960938 274.648438 175.710938 274.648438 140 C 274.648438 104.289063 260.460938 70.039063 235.210938 44.789063 C 209.960938 19.539063 175.710938 5.351563 140 5.351563 Z M 140 5.351563 "/>
<path style=" stroke:none;fill-rule:nonzero;fill:rgb(48.234558%,69.410706%,86.665344%);fill-opacity:1;" d="M 140 9.8125 C 174.527344 9.8125 207.640625 23.527344 232.054688 47.945313 C 256.472656 72.359375 270.1875 105.472656 270.1875 140 C 270.1875 174.527344 256.472656 207.640625 232.054688 232.054688 C 207.640625 256.472656 174.527344 270.1875 140 270.1875 C 105.472656 270.1875 72.359375 256.472656 47.945313 232.054688 C 23.527344 207.640625 9.8125 174.527344 9.8125 140 C 9.8125 105.472656 23.527344 72.359375 47.945313 47.945313 C 72.359375 23.527344 105.472656 9.8125 140 9.8125 M 140 5.351563 C 104.289063 5.351563 70.042969 19.539063 44.789063 44.789063 C 19.539063 70.039063 5.351563 104.289063 5.351563 140 C 5.351563 175.710938 19.539063 209.960938 44.789063 235.210938 C 70.042969 260.460938 104.289063 274.648438 140 274.648438 C 175.710938 274.648438 209.960938 260.460938 235.210938 235.210938 C 260.460938 209.960938 274.648438 175.710938 274.648438 140 C 274.648438 104.289063 260.460938 70.039063 235.210938 44.789063 C 209.960938 19.539063 175.710938 5.351563 140 5.351563 "/>
<path style="fill:none;stroke-width:4.955;stroke-linecap:butt;stroke-linejoin:miter;stroke:rgb(0%,18.03894%,37.646484%);stroke-opacity:1;stroke-miterlimit:4;" d="M 223.730469 140.523438 C 223.730469 162.628906 214.945313 183.832031 199.3125 199.464844 C 183.679688 215.097656 162.476563 223.882813 140.371094 223.882813 C 118.261719 223.882813 97.058594 215.097656 81.425781 199.464844 C 65.792969 183.832031 57.011719 162.628906 57.011719 140.523438 C 57.011719 118.414063 65.792969 97.210938 81.425781 81.578125 C 97.058594 65.945313 118.261719 57.164063 140.371094 57.164063 C 162.476563 57.164063 183.679688 65.945313 199.3125 81.578125 C 214.945313 97.210938 223.730469 118.414063 223.730469 140.523438 Z M 223.730469 140.523438 "/>
<path style=" stroke:none;fill-rule:nonzero;fill:rgb(48.234558%,69.410706%,86.665344%);fill-opacity:1;" d="M 217.917969 140.394531 C 217.917969 161.023438 209.722656 180.808594 195.136719 195.398438 C 180.550781 209.984375 160.765625 218.179688 140.136719 218.179688 C 119.507813 218.179688 99.722656 209.984375 85.136719 195.398438 C 70.550781 180.808594 62.355469 161.023438 62.355469 140.394531 C 62.355469 119.765625 70.550781 99.984375 85.136719 85.394531 C 99.722656 70.808594 119.507813 62.613281 140.136719 62.613281 C 160.765625 62.613281 180.550781 70.808594 195.136719 85.394531 C 209.722656 99.984375 217.917969 119.765625 217.917969 140.394531 "/>
<path style=" stroke:none;fill-rule:evenodd;fill:rgb(0%,18.03894%,37.646484%);fill-opacity:1;" d="M 75.839844 76.128906 C 70.28125 99.804688 70.214844 121.164063 70.445313 135.71875 C 70.082031 202.046875 119.152344 222.636719 139.972656 228.914063 C 160.796875 222.636719 209.867188 202.046875 209.503906 135.71875 C 209.734375 121.164063 209.667969 99.804688 204.109375 76.128906 C 171.898438 70.480469 152.3125 71.023438 139.972656 70.882813 C 127.636719 71.023438 108.050781 70.480469 75.839844 76.128906 "/>
<path style=" stroke:none;fill-rule:evenodd;fill:rgb(100%,73.332214%,34.901428%);fill-opacity:1;" d="M 82.496094 80.757813 C 78.960938 96.445313 77.152344 110.601563 76.46875 122.363281 C 76.195313 135.183594 76.050781 148.1875 78.070313 159.65625 C 79.132813 165.691406 80.902344 171.976563 84.109375 178.464844 C 90.816406 191.035156 100.40625 202.167969 109.121094 208.089844 C 120.632813 216.84375 132.523438 221.6875 139.972656 224.046875 C 147.425781 221.6875 159.316406 216.84375 170.828125 208.089844 C 179.542969 202.167969 189.132813 191.035156 195.835938 178.464844 C 199.046875 171.976563 200.816406 165.691406 201.878906 159.65625 C 203.898438 148.1875 203.753906 135.183594 203.476563 122.363281 C 202.796875 110.601563 200.988281 96.445313 197.453125 80.757813 C 168.507813 75.472656 151.058594 75.980469 139.972656 75.847656 C 128.890625 75.980469 111.441406 75.472656 82.496094 80.757813 "/>
<path style=" stroke:none;fill-rule:nonzero;fill:rgb(0%,18.03894%,37.646484%);fill-opacity:1;" d="M 120.671875 239.671875 C 120.421875 239.507813 119.800781 238.789063 119.226563 238.425781 C 114.527344 235.40625 108.980469 238.316406 108.714844 244.003906 C 108.5625 247.480469 111.113281 250.4375 113.960938 250.992188 C 116.898438 251.539063 118.992188 250.203125 120.921875 248.515625 L 123.890625 251.632813 C 122.355469 253.246094 120.519531 254.757813 117.199219 255.402344 C 116.582031 255.507813 115.734375 255.5625 114.652344 255.5625 C 108.460938 254.964844 104.945313 251.683594 103.921875 246.414063 C 103.328125 243.589844 103.820313 240.691406 105.320313 238.238281 C 107.109375 235.320313 109.738281 233.636719 113.117188 232.980469 C 117.148438 232.21875 121.25 233.523438 123.765625 236.175781 Z M 120.671875 239.671875 "/>
<path style=" stroke:none;fill-rule:nonzero;fill:rgb(0%,18.03894%,37.646484%);fill-opacity:1;" d="M 128.550781 233.125 L 133.515625 233.125 L 133.515625 255.140625 L 128.550781 255.140625 Z M 128.550781 233.125 "/>
<path style=" stroke:none;fill-rule:nonzero;fill:rgb(0%,18.03894%,37.646484%);fill-opacity:1;" d="M 156.304688 237.695313 L 149.601563 237.695313 L 149.601563 255.140625 L 144.628906 255.140625 L 144.628906 237.695313 L 137.941406 237.695313 L 137.941406 233.125 L 156.304688 233.125 Z M 156.304688 237.695313 "/>
<path style=" stroke:none;fill-rule:nonzero;fill:rgb(0%,18.03894%,37.646484%);fill-opacity:1;" d="M 180.054688 233.125 L 171.546875 246.277344 L 171.546875 255.140625 L 166.695313 255.140625 L 166.695313 246.277344 L 158.292969 233.125 L 163.988281 233.125 L 169.160156 242.113281 L 174.546875 233.125 Z M 180.054688 233.125 "/>
<path style=" stroke:none;fill-rule:evenodd;fill:rgb(0%,18.03894%,37.646484%);fill-opacity:1;" d="M 55.230469 101.832031 L 53.023438 105.9375 L 33.980469 95.960938 L 36.367188 91.453125 L 47.238281 90.765625 L 41.660156 81.320313 L 44.03125 76.847656 L 63.058594 86.914063 L 60.910156 91.035156 L 48.308594 84.363281 L 53.773438 94.253906 L 42.683594 95.359375 Z M 55.230469 101.832031 "/>
<path style=" stroke:none;fill-rule:nonzero;fill:rgb(0%,18.03894%,37.646484%);fill-opacity:1;" d="M 68.496094 67.140625 L 61.308594 64.347656 L 64.488281 71.304688 Z M 80.96875 67.015625 L 77.496094 70.644531 L 72.636719 68.722656 L 66.351563 75.398438 L 68.566406 80.164063 L 65.269531 83.609375 L 55.789063 62.050781 L 58.769531 58.851563 Z M 80.96875 67.015625 "/>
<path style=" stroke:none;fill-rule:evenodd;fill:rgb(0%,18.03894%,37.646484%);fill-opacity:1;" d="M 84.121094 64.730469 L 72.894531 46.351563 L 76.648438 44.046875 L 92.222656 50.238281 L 85.273438 38.824219 L 89.285156 36.398438 L 100.449219 54.84375 L 97.003906 56.894531 L 80.910156 50.585938 L 88.066406 62.304688 Z M 84.121094 64.730469 "/>
<path style=" stroke:none;fill-rule:nonzero;fill:rgb(0%,18.03894%,37.646484%);fill-opacity:1;" d="M 116.578125 33.71875 C 116.296875 33.632813 115.519531 33.128906 114.875 32.941406 C 109.628906 31.390625 105.210938 35.648438 106.515625 41.066406 C 107.324219 44.382813 110.535156 46.464844 113.363281 46.203125 C 116.277344 45.914063 117.878906 44.085938 119.234375 41.96875 L 122.882813 44.085938 C 121.878906 46.023438 120.566406 47.953125 117.621094 49.46875 C 117.070313 49.734375 116.285156 50.019531 115.269531 50.316406 C 109.28125 51.449219 105.074219 49.324219 102.664063 44.648438 C 101.335938 42.15625 101.003906 39.292969 101.742188 36.574219 C 102.628906 33.339844 104.640625 31.035156 107.636719 29.492188 C 111.21875 27.671875 115.4375 27.773438 118.527344 29.582031 Z M 116.578125 33.71875 "/>
<path style=" stroke:none;fill-rule:nonzero;fill:rgb(0%,18.03894%,37.646484%);fill-opacity:1;" d="M 214.328125 57.402344 L 209.113281 53.355469 L 198.664063 67.117188 L 194.847656 64.246094 L 205.339844 50.550781 L 200.136719 46.578125 L 202.78125 43.113281 L 216.972656 53.964844 Z M 214.328125 57.402344 "/>
<path style=" stroke:none;fill-rule:evenodd;fill:rgb(0%,18.03894%,37.646484%);fill-opacity:1;" d="M 127.753906 25.292969 L 128.253906 46.847656 L 132.949219 46.6875 L 132.679688 38.03125 L 141.574219 37.777344 L 141.785156 46.496094 L 146.433594 46.390625 L 145.957031 24.847656 L 141.207031 24.949219 L 141.433594 33.515625 L 132.617188 33.746094 L 132.421875 25.203125 Z M 127.753906 25.292969 "/>
<path style=" stroke:none;fill-rule:evenodd;fill:rgb(0%,18.03894%,37.646484%);fill-opacity:1;" d="M 157.613281 26.203125 L 173.464844 29.652344 L 172.539063 33.75 L 161.269531 31.269531 L 160.277344 35.667969 L 169.59375 37.632813 L 167.378906 41.402344 L 159.425781 39.683594 L 158.417969 44.1875 L 169.914063 46.660156 L 169.007813 50.734375 L 153.027344 47.265625 Z M 157.613281 26.203125 "/>
<path style=" stroke:none;fill-rule:evenodd;fill:rgb(0%,18.03894%,37.646484%);fill-opacity:1;" d="M 186.492188 44.152344 C 183.707031 42.09375 183.675781 40.851563 184.398438 39.835938 C 185.128906 39.035156 186.003906 39.046875 186.933594 39.375 C 188.425781 39.882813 189.59375 40.902344 190.496094 42.074219 C 190.988281 42.71875 191.371094 43.347656 191.746094 43.929688 L 195.4375 41.652344 C 194.878906 40.589844 193.367188 37.550781 188.917969 35.640625 C 186.824219 34.726563 181.800781 33.886719 179.640625 39.003906 C 178.769531 41.222656 179.101563 42.652344 179.660156 43.636719 C 180.90625 45.617188 182.828125 47.011719 184.582031 48.5625 C 185.308594 49.164063 186.058594 49.886719 186.367188 50.757813 C 186.582031 51.417969 186.402344 52.105469 185.910156 52.527344 C 183.355469 54.703125 178.707031 49.992188 177.804688 47.464844 L 173.84375 49.351563 C 175.953125 53.449219 179.527344 57.136719 185.1875 57.304688 C 187.226563 57.203125 189.566406 56.089844 190.660156 53.621094 C 191.390625 51.652344 191.558594 49.859375 190.519531 48.210938 C 189.535156 46.667969 187.824219 45.097656 186.492188 44.152344 "/>
<path style=" stroke:none;fill-rule:evenodd;fill:rgb(0%,18.03894%,37.646484%);fill-opacity:1;" d="M 223.550781 60.335938 L 233.933594 72.800781 L 230.683594 75.460938 L 223.320313 66.582031 L 219.835938 69.441406 L 226.210938 77.015625 L 221.945313 78.394531 L 216.695313 72.085938 L 213.132813 75.019531 L 220.679688 84.035156 L 217.460938 86.6875 L 206.984375 74.132813 Z M 223.550781 60.335938 "/>
<path style=" stroke:none;fill-rule:nonzero;fill:rgb(0%,18.03894%,37.646484%);fill-opacity:1;" d="M 228.546875 107.484375 L 226.085938 102.558594 L 230.210938 95.367188 L 228.417969 92.007813 L 222.277344 95.074219 L 220.179688 90.855469 L 239.417969 81.199219 L 243.507813 89.386719 C 244.066406 90.507813 244.339844 91.175781 244.625 92.042969 C 245.207031 93.710938 245.246094 95.308594 244.703125 96.632813 C 242.925781 100.976563 237.1875 103.113281 233.066406 99.328125 Z M 239.933594 91.710938 L 237.695313 87.34375 L 232.214844 90.164063 L 234.277344 94.367188 C 235.394531 96.710938 237.160156 96.964844 238.589844 96.441406 C 240.160156 95.863281 241.140625 93.859375 239.933594 91.710938 "/>
<path style=" stroke:none;fill-rule:nonzero;fill:rgb(48.234558%,69.410706%,86.665344%);fill-opacity:1;" d="M 240.164063 138.851563 C 240.203125 137.738281 239.265625 137.027344 238.351563 136.808594 C 237.929688 136.714844 237.480469 136.71875 237.019531 136.84375 C 236.585938 136.992188 236.246094 137.222656 236.003906 137.5 C 234.960938 138.734375 235.742188 140.269531 236.648438 140.640625 C 236.976563 140.789063 237.40625 140.886719 237.96875 140.894531 C 239.769531 140.855469 240.152344 139.40625 240.164063 138.851563 M 240.039063 142.175781 C 238.21875 143.792969 235.472656 143.398438 233.914063 141.777344 C 233.222656 141.039063 232.804688 140.074219 232.800781 139.027344 C 232.855469 138.238281 233.078125 137.492188 233.417969 136.84375 C 233.832031 136.0625 234.382813 135.488281 235.097656 135.101563 C 236.738281 134.210938 238.90625 134.15625 240.417969 135.066406 C 241.492188 135.730469 242.226563 136.839844 242.566406 138.128906 C 242.769531 138.925781 242.875 139.835938 242.875 140.851563 C 242.828125 143.414063 242.109375 145.832031 240.128906 147.027344 C 239.589844 147.351563 238.929688 147.566406 238.132813 147.660156 C 236.023438 147.90625 234.46875 147.25 233.167969 146.257813 L 234.617188 144.105469 C 238.191406 146.976563 239.964844 144.214844 240.039063 142.175781 "/>
<path style=" stroke:none;fill-rule:nonzero;fill:rgb(48.234558%,69.410706%,86.665344%);fill-opacity:1;" d="M 252.171875 142.496094 L 252.171875 138.351563 L 248.457031 142.496094 Z M 256.382813 144.730469 L 254.730469 144.730469 L 254.730469 147.675781 L 252.171875 147.675781 L 252.171875 144.730469 L 245.726563 144.730469 L 245.371094 142.769531 L 252.371094 134.515625 L 254.730469 134.515625 L 254.730469 142.496094 L 256.382813 142.496094 Z M 256.382813 144.730469 "/>
<path style=" stroke:none;fill-rule:nonzero;fill:rgb(48.234558%,69.410706%,86.665344%);fill-opacity:1;" d="M 26.765625 137.917969 L 26.21875 135.691406 L 29.660156 134.5625 L 31.78125 134.5625 L 31.78125 147.566406 L 29.054688 147.566406 L 29.054688 137.246094 Z M 26.765625 137.917969 "/>
<path style=" stroke:none;fill-rule:nonzero;fill:rgb(48.234558%,69.410706%,86.665344%);fill-opacity:1;" d="M 42.246094 143.675781 C 42.207031 142.359375 40.75 142.011719 39.789063 142.046875 C 38.78125 142.121094 37.753906 142.722656 37.742188 143.675781 C 37.777344 144.917969 39.054688 145.484375 40.058594 145.492188 C 41.226563 145.488281 42.234375 144.730469 42.246094 143.675781 M 41.375 139.507813 C 41.691406 139.1875 41.847656 138.820313 41.847656 138.417969 C 41.847656 137.949219 41.691406 137.585938 41.375 137.324219 C 41.0625 137.050781 40.625 136.917969 40.058594 136.917969 C 39.492188 136.917969 39.050781 137.050781 38.726563 137.324219 C 38.414063 137.585938 38.257813 137.949219 38.257813 138.417969 C 38.257813 138.820313 38.417969 139.1875 38.738281 139.507813 C 39.386719 140.027344 40.484375 140.144531 41.375 139.507813 M 42.710938 140.804688 C 44.253906 141.398438 44.984375 142.574219 45.003906 144.128906 C 44.988281 145.933594 43.679688 147.097656 42.140625 147.523438 C 41.53125 147.6875 40.835938 147.769531 40.058594 147.769531 C 37.917969 147.710938 35.140625 146.746094 35.089844 144.128906 C 35.164063 142.332031 35.570313 141.664063 37.132813 140.804688 C 35.554688 139.8125 34.980469 138.140625 35.972656 136.339844 C 36.207031 135.925781 36.53125 135.578125 36.9375 135.300781 C 37.347656 135.023438 37.816406 134.8125 38.351563 134.671875 C 38.886719 134.527344 39.453125 134.457031 40.058594 134.457031 C 42.316406 134.433594 44.324219 135.546875 44.546875 137.847656 C 44.601563 138.472656 44.503906 139.113281 44.167969 139.660156 C 43.890625 140.132813 43.417969 140.507813 42.710938 140.804688 "/>
<path style=" stroke:none;fill-rule:evenodd;fill:rgb(91.371155%,67.0578%,0%);fill-opacity:1;" d="M 139.972656 224.046875 C 147.425781 221.6875 159.316406 216.84375 170.828125 208.089844 C 179.542969 202.167969 189.132813 191.035156 195.835938 178.464844 C 199.046875 171.976563 200.816406 165.691406 201.878906 159.65625 C 203.898438 148.1875 203.753906 135.183594 203.476563 122.363281 C 202.796875 110.601563 200.988281 96.445313 197.453125 80.757813 C 168.507813 75.472656 151.058594 75.980469 139.972656 75.847656 "/>
<path style=" stroke:none;fill-rule:evenodd;fill:rgb(48.234558%,69.410706%,86.665344%);fill-opacity:1;" d="M 198.707031 147.84375 C 195.960938 180.925781 180.5 203.800781 139.972656 218.277344 C 99.453125 203.800781 83.988281 180.929688 81.242188 147.847656 Z M 198.707031 147.84375 "/>
<path style=" stroke:none;fill-rule:evenodd;fill:rgb(100%,100%,100%);fill-opacity:1;" d="M 80.925781 142.871094 C 80.640625 136.480469 80.78125 129.730469 81.265625 122.601563 C 81.898438 111.535156 82.589844 98.632813 85.875 83.871094 C 111.53125 79.234375 128.9375 79.324219 139.972656 78.996094 C 151.011719 79.324219 168.417969 79.234375 194.074219 83.871094 C 197.359375 98.632813 198.050781 111.535156 198.683594 122.601563 C 199.171875 129.761719 199.308594 136.542969 199.019531 142.960938 Z M 80.925781 142.871094 "/>
<path style=" stroke:none;fill-rule:evenodd;fill:rgb(65.881348%,78.822327%,90.979004%);fill-opacity:1;" d="M 153.730469 212.589844 C 149.503906 214.613281 144.925781 216.507813 139.972656 218.277344 L 81.242188 147.847656 L 100.34375 147.84375 Z M 195.6875 165.582031 C 194.144531 171.214844 192.042969 176.484375 189.296875 181.398438 L 161.53125 147.84375 L 180.988281 147.84375 Z M 179.109375 195.027344 C 175.980469 198.242188 172.429688 201.257813 168.414063 204.085938 L 121.78125 147.84375 L 140.035156 147.84375 Z M 179.109375 195.027344 "/>
<path style=" stroke:none;fill-rule:evenodd;fill:rgb(98.431396%,76.077271%,30.587769%);fill-opacity:1;" d="M 154.445313 133.980469 C 162.667969 133.59375 171.003906 132.300781 174.980469 131.269531 C 174.15625 137.6875 167.679688 136.953125 171.332031 142.9375 L 162.988281 142.929688 C 159.851563 141.871094 156.59375 140.535156 153.835938 140.308594 C 153 140.246094 152.296875 140.257813 151.589844 140.53125 C 142.917969 143.867188 135.875 140.054688 129.382813 139.898438 C 129.140625 140.683594 127.765625 141.621094 125.03125 141.90625 C 120.371094 142.46875 117.046875 140.535156 113.371094 140.40625 C 112.042969 140.363281 110.777344 140.808594 109.714844 142.890625 C 107.839844 140.285156 106.695313 138.308594 104.089844 135.074219 C 100.171875 133.199219 96.542969 131.6875 93.046875 130.335938 L 93.226563 129.601563 C 104.378906 133.042969 112.835938 134.300781 120.394531 134.980469 C 129.730469 135.335938 139.769531 135.949219 148.878906 135.3125 C 151.457031 134.519531 152.476563 134.074219 154.445313 133.980469 "/>
<path style=" stroke:none;fill-rule:evenodd;fill:rgb(91.763306%,66.665649%,0%);fill-opacity:1;" d="M 173.65625 132.171875 C 172.691406 136.300781 166.53125 137.859375 170.625 142.9375 L 165.742188 142.933594 C 162.59375 141.84375 157.242188 139.480469 151.230469 139.414063 C 149.066406 141.078125 145.019531 141.886719 138.902344 140.523438 C 136.0625 139.890625 132.179688 138.96875 128.246094 138.992188 C 127.300781 142.824219 114.714844 141.261719 110.277344 135.417969 L 104.535156 133.984375 L 103.21875 132.9375 C 112.28125 134.832031 121.542969 135.945313 126.273438 136.089844 C 134.910156 136.40625 143.019531 136.417969 148.800781 136.214844 C 150.734375 135.65625 151.101563 135.414063 152.0625 135.050781 C 153.4375 134.363281 155.078125 134.480469 156.417969 134.40625 C 164.46875 133.96875 169.5625 132.921875 173.65625 132.171875 "/>
<path style=" stroke:none;fill-rule:evenodd;fill:rgb(91.763306%,66.665649%,0%);fill-opacity:1;" d="M 128.632813 115.332031 C 124.617188 129.0625 112.714844 127.289063 113.464844 132.800781 C 115.285156 131.203125 117.023438 131.058594 118.773438 130.632813 L 118.804688 134.828125 C 119.308594 134.878906 119.804688 134.925781 120.296875 134.972656 L 120.375 130.433594 C 124.679688 129.921875 128.460938 130.460938 132.347656 130.789063 C 129.191406 125.726563 127.191406 120.609375 128.632813 115.332031 M 135.125 133.851563 C 136.226563 132.210938 138.042969 131.386719 140.171875 130.921875 L 140.113281 135.589844 C 140.648438 135.589844 141.179688 135.585938 141.710938 135.582031 L 141.644531 130.558594 C 147.503906 129.796875 153.84375 130.738281 158.902344 131.996094 L 158.875 133.6875 C 159.425781 133.644531 159.925781 133.59375 160.46875 133.542969 L 160.484375 131.539063 L 177.046875 125.757813 C 172.347656 119.539063 172.773438 112.292969 173.976563 104.894531 C 173.070313 108.621094 170.917969 115.457031 165.257813 121.761719 C 160.785156 126.746094 161.234375 127.824219 160.464844 129.226563 L 160.144531 95.632813 L 156.324219 96.921875 C 155.523438 97.152344 155.992188 97.519531 155.335938 97.824219 L 151.488281 99.296875 L 155.902344 99.09375 C 156.550781 99.09375 156.148438 98.207031 156.75 98.109375 L 159.199219 97.863281 L 158.886719 131.054688 C 156.269531 126.953125 151.71875 122.03125 153.566406 111.71875 C 148.878906 129.488281 133.984375 127.554688 135.125 133.851563 "/>
<path style=" stroke:none;fill-rule:evenodd;fill:rgb(100%,73.332214%,34.901428%);fill-opacity:1;" d="M 111.304688 121.335938 L 128.632813 115.332031 C 124.617188 129.0625 112.714844 127.289063 113.464844 132.800781 C 109.410156 128.824219 109.257813 124.046875 111.304688 121.335938 M 132.667969 118.898438 L 153.566406 111.71875 C 148.878906 129.488281 133.984375 127.554688 135.125 133.851563 C 131.644531 130.554688 128.21875 124.324219 132.667969 118.898438 M 173.976563 104.894531 C 173.070313 108.621094 170.917969 115.457031 165.257813 121.761719 C 160.785156 126.746094 161.234375 127.824219 160.464844 129.226563 L 160.28125 109.648438 Z M 173.976563 104.894531 "/>
<path style=" stroke:none;fill-rule:evenodd;fill:rgb(91.763306%,66.665649%,0%);fill-opacity:1;" d="M 141.617188 91.589844 L 141.578125 85.566406 L 137.753906 86.855469 C 136.953125 87.085938 137.421875 87.449219 136.765625 87.753906 L 132.917969 89.226563 L 137.332031 89.023438 C 137.980469 89.023438 137.578125 88.140625 138.179688 88.039063 L 140.628906 87.796875 L 140.589844 91.957031 Z M 141.617188 91.589844 "/>
<path style=" stroke:none;fill-rule:evenodd;fill:rgb(91.763306%,66.665649%,0%);fill-opacity:1;" d="M 120.054688 106.421875 L 120.015625 99.09375 L 116.195313 100.378906 C 115.394531 100.609375 115.859375 100.976563 115.203125 101.28125 L 111.460938 102.667969 L 115.773438 102.550781 C 116.421875 102.550781 116.015625 101.667969 116.621094 101.566406 L 119.070313 101.324219 L 119.050781 106.769531 Z M 120.054688 106.421875 "/>
<path style=" stroke:none;fill-rule:evenodd;fill:rgb(100%,73.332214%,34.901428%);fill-opacity:1;" d="M 137.332031 89.023438 C 137.980469 89.023438 137.578125 88.140625 138.179688 88.039063 L 137.753906 86.855469 C 136.953125 87.085938 137.421875 87.449219 136.765625 87.753906 Z M 137.332031 89.023438 "/>
<path style=" stroke:none;fill-rule:evenodd;fill:rgb(100%,73.332214%,34.901428%);fill-opacity:1;" d="M 148.164063 89.324219 C 142.03125 101.121094 133.8125 99.152344 132.800781 104.8125 C 129.585938 102.261719 130.960938 96.9375 133.039063 94.601563 Z M 148.164063 89.324219 "/>
<path style=" stroke:none;fill-rule:evenodd;fill:rgb(91.763306%,66.665649%,0%);fill-opacity:1;" d="M 149.960938 99.484375 C 147.859375 96.9375 146.417969 94.019531 148.164063 89.324219 C 142.03125 101.121094 133.8125 99.152344 132.800781 104.8125 C 136.273438 100.113281 146.773438 99.746094 149.960938 99.484375 "/>
<path style=" stroke:none;fill-rule:evenodd;fill:rgb(100%,73.332214%,34.901428%);fill-opacity:1;" d="M 132.949219 117.867188 C 129.332031 112.574219 129.644531 107.125 132.851563 105.621094 C 138.554688 103.578125 145.898438 101.339844 149.960938 99.484375 C 147.074219 110.605469 134.226563 111.613281 132.949219 117.867188 "/>
<path style=" stroke:none;fill-rule:evenodd;fill:rgb(91.763306%,66.665649%,0%);fill-opacity:1;" d="M 149.960938 99.484375 C 147.074219 110.605469 134.226563 111.613281 132.949219 117.867188 C 135.640625 114.265625 141.832031 111.898438 153.597656 111.5 C 151.011719 108.183594 149.183594 104.484375 149.960938 99.484375 "/>
<path style=" stroke:none;fill-rule:evenodd;fill:rgb(100%,73.332214%,34.901428%);fill-opacity:1;" d="M 125.65625 104.394531 C 120.675781 106.253906 116.261719 107.792969 112.355469 109.054688 C 110.582031 110.875 108.375 115.835938 111.683594 120.070313 C 111.070313 115.195313 121.535156 113.351563 125.65625 104.394531 "/>
<path style=" stroke:none;fill-rule:evenodd;fill:rgb(91.763306%,66.665649%,0%);fill-opacity:1;" d="M 111.683594 120.070313 C 111.070313 115.195313 121.535156 113.351563 125.65625 104.394531 C 125.476563 106.5625 124.632813 111.25 128.570313 115.144531 C 122.511719 115.542969 114.589844 116.414063 111.683594 120.070313 "/>
<path style=" stroke:none;fill-rule:evenodd;fill:rgb(100%,73.332214%,34.901428%);fill-opacity:1;" d="M 115.773438 102.550781 C 116.421875 102.550781 116.015625 101.667969 116.621094 101.566406 L 116.195313 100.378906 C 115.394531 100.609375 115.859375 100.976563 115.203125 101.28125 Z M 115.773438 102.550781 "/>
<path style=" stroke:none;fill-rule:evenodd;fill:rgb(100%,73.332214%,34.901428%);fill-opacity:1;" d="M 110.023438 109.71875 C 105.703125 112.816406 97.894531 118.640625 93.78125 128.402344 C 96.46875 128.113281 99.183594 128.109375 103.078125 128.933594 C 100.019531 126.808594 99.417969 124.445313 110.023438 109.71875 "/>
<path style=" stroke:none;fill-rule:evenodd;fill:rgb(91.763306%,66.665649%,0%);fill-opacity:1;" d="M 106.234375 129.574219 L 103.078125 128.933594 C 100.019531 126.808594 99.417969 124.445313 110.023438 109.71875 C 107.839844 113.613281 104.371094 120.566406 106.234375 129.574219 "/>
<path style=" stroke:none;fill-rule:evenodd;fill:rgb(100%,73.332214%,34.901428%);fill-opacity:1;" d="M 155.902344 99.09375 C 156.550781 99.09375 156.148438 98.207031 156.75 98.109375 L 156.324219 96.921875 C 155.523438 97.152344 155.992188 97.519531 155.335938 97.824219 Z M 155.902344 99.09375 "/>
<path style=" stroke:none;fill-rule:evenodd;fill:rgb(0%,18.03894%,37.646484%);fill-opacity:1;" d="M 141.113281 155.902344 L 143.597656 159.019531 C 143.945313 159.414063 143.792969 159.816406 143.757813 160.140625 C 145.503906 160.050781 147.425781 160.601563 148.582031 162.238281 C 149.816406 163.996094 150.6875 164.929688 151.640625 165.671875 C 152.960938 166.667969 154.253906 167.117188 155.4375 167.429688 C 157.15625 167.882813 158.472656 168.988281 159.246094 171.347656 C 159.519531 171.332031 159.726563 171.175781 160.632813 171.4375 L 163.925781 172.5625 C 164.117188 172.648438 164.40625 172.746094 164.621094 172.992188 C 164.824219 173.257813 164.902344 173.53125 164.945313 173.820313 C 164.980469 174.085938 164.980469 174.445313 164.824219 174.769531 L 162.347656 178.265625 C 162.101563 178.546875 161.691406 178.660156 161.566406 178.667969 C 162.234375 180.277344 162.355469 182.378906 160.992188 184.136719 C 159.285156 186.347656 159.039063 187.019531 158.628906 188.269531 C 158.371094 189.179688 158.25 190.84375 158.230469 192.769531 C 158.21875 194.285156 157.460938 195.6875 155.785156 196.683594 C 155.808594 196.792969 155.914063 196.992188 155.925781 197.296875 L 155.960938 200.847656 C 155.996094 201.300781 155.925781 201.773438 155.722656 202.105469 C 155.402344 202.574219 154.984375 202.765625 154.472656 202.824219 C 153.988281 202.878906 153.542969 202.800781 153.472656 202.773438 L 149.894531 201.605469 C 149.539063 201.425781 149.476563 201.214844 149.480469 201.246094 C 145.832031 204.15625 142.84375 201.527344 139.972656 201.4375 C 137.105469 201.527344 134.117188 204.15625 130.46875 201.246094 C 130.472656 201.214844 130.410156 201.425781 130.054688 201.605469 L 126.476563 202.773438 C 126.40625 202.800781 125.960938 202.878906 125.476563 202.824219 C 124.964844 202.765625 124.546875 202.574219 124.226563 202.105469 C 124.023438 201.773438 123.953125 201.300781 123.988281 200.847656 L 124.023438 197.296875 C 124.035156 196.992188 124.140625 196.792969 124.164063 196.683594 C 122.488281 195.6875 121.730469 194.285156 121.71875 192.769531 C 121.699219 190.84375 121.578125 189.179688 121.320313 188.269531 C 120.910156 187.019531 120.664063 186.347656 118.953125 184.136719 C 117.59375 182.378906 117.714844 180.277344 118.382813 178.667969 C 118.257813 178.660156 117.84375 178.546875 117.601563 178.265625 L 115.125 174.769531 C 114.96875 174.445313 114.96875 174.085938 115.003906 173.820313 C 115.046875 173.53125 115.125 173.257813 115.328125 172.992188 C 115.542969 172.746094 115.832031 172.648438 116.023438 172.5625 L 119.316406 171.4375 C 120.222656 171.175781 120.429688 171.332031 120.703125 171.347656 C 121.476563 168.988281 122.792969 167.882813 124.511719 167.429688 C 125.695313 167.117188 126.988281 166.667969 128.308594 165.671875 C 129.261719 164.929688 130.132813 163.996094 131.367188 162.238281 C 132.523438 160.601563 134.445313 160.050781 136.191406 160.140625 C 136.15625 159.816406 136.003906 159.414063 136.351563 159.019531 L 138.835938 155.902344 C 139.261719 155.382813 139.6875 155.371094 139.972656 155.332031 C 140.261719 155.371094 140.6875 155.382813 141.113281 155.902344 "/>
<path style=" stroke:none;fill-rule:evenodd;fill:rgb(89.4104%,9.411621%,9.803772%);fill-opacity:1;" d="M 139 168.03125 C 138.175781 167.222656 136.84375 166.648438 135.296875 167.792969 C 135.097656 167.941406 134.894531 168.117188 134.6875 168.328125 C 133.429688 169.550781 133.175781 170.675781 131.769531 171.351563 C 129.863281 172.257813 126.425781 172.292969 127.558594 175.914063 C 127.941406 176.976563 127.96875 176.816406 126.929688 176.617188 C 125.140625 176.175781 123.589844 175.183594 123.457031 173.28125 C 123.40625 171.464844 124.222656 170.082031 125.789063 169.558594 C 126.78125 169.226563 127.882813 169.144531 129.878906 167.757813 C 132.25 166.117188 132.605469 164.03125 134.417969 163.207031 C 135.5 162.765625 136.550781 162.769531 137.570313 163.226563 C 139.296875 164.015625 139.621094 165.8125 139.46875 167.957031 C 139.453125 168.527344 139.171875 168.226563 139 168.03125 "/>
<path style=" stroke:none;fill-rule:evenodd;fill:rgb(89.4104%,9.411621%,9.803772%);fill-opacity:1;" d="M 139.4375 177.804688 L 139.453125 171.574219 C 139.546875 170.210938 138.992188 169.148438 137.726563 168.832031 C 137.191406 168.699219 136.667969 168.722656 136.175781 169.007813 C 135.515625 169.394531 135.035156 170.125 134.429688 170.84375 C 133.804688 171.558594 133.167969 172.238281 132.34375 172.574219 C 131.671875 172.847656 130.839844 173.019531 130.179688 173.375 C 129.40625 173.789063 128.816406 174.394531 128.839844 175.507813 C 128.839844 176.113281 129.113281 176.714844 129.613281 177.152344 C 130.140625 177.597656 130.71875 177.71875 131.386719 177.9375 L 136.710938 179.660156 C 137.125 179.773438 137.277344 179.695313 137.460938 179.378906 C 138.03125 178.4375 138.585938 178.359375 139.097656 178.277344 C 139.363281 178.269531 139.449219 178.007813 139.4375 177.804688 "/>
<path style=" stroke:none;fill-rule:evenodd;fill:rgb(89.4104%,9.411621%,9.803772%);fill-opacity:1;" d="M 141.289063 168.03125 C 142.113281 167.222656 143.445313 166.648438 144.992188 167.792969 C 145.191406 167.941406 145.394531 168.117188 145.601563 168.328125 C 146.859375 169.550781 147.113281 170.675781 148.519531 171.351563 C 150.425781 172.257813 153.863281 172.292969 152.730469 175.914063 C 152.347656 176.976563 152.320313 176.816406 153.359375 176.617188 C 155.148438 176.175781 156.699219 175.183594 156.832031 173.28125 C 156.882813 171.464844 156.066406 170.082031 154.5 169.558594 C 153.507813 169.226563 152.40625 169.144531 150.410156 167.757813 C 148.039063 166.117188 147.6875 164.03125 145.871094 163.207031 C 144.789063 162.765625 143.738281 162.769531 142.71875 163.226563 C 140.992188 164.015625 140.667969 165.8125 140.820313 167.957031 C 140.835938 168.527344 141.117188 168.226563 141.289063 168.03125 "/>
<path style=" stroke:none;fill-rule:evenodd;fill:rgb(89.4104%,9.411621%,9.803772%);fill-opacity:1;" d="M 140.851563 177.804688 L 140.835938 171.574219 C 140.742188 170.210938 141.296875 169.148438 142.5625 168.832031 C 143.097656 168.699219 143.621094 168.722656 144.113281 169.007813 C 144.773438 169.394531 145.253906 170.125 145.859375 170.84375 C 146.488281 171.558594 147.121094 172.238281 147.945313 172.574219 C 148.617188 172.847656 149.449219 173.019531 150.109375 173.375 C 150.882813 173.789063 151.472656 174.394531 151.449219 175.507813 C 151.449219 176.113281 151.175781 176.714844 150.675781 177.152344 C 150.148438 177.597656 149.570313 177.71875 148.902344 177.9375 L 143.578125 179.660156 C 143.429688 179.710938 143.285156 179.738281 143.160156 179.714844 C 143.085938 179.703125 143.019531 179.675781 142.957031 179.625 C 142.113281 178.378906 141.800781 178.445313 141.039063 178.269531 C 140.886719 178.179688 140.835938 178.011719 140.851563 177.804688 "/>
<path style=" stroke:none;fill-rule:evenodd;fill:rgb(89.4104%,9.411621%,9.803772%);fill-opacity:1;" d="M 149.007813 191.78125 C 150.152344 191.949219 151.566406 191.625 152.136719 189.789063 C 152.210938 189.550781 152.273438 189.285156 152.316406 188.996094 C 152.605469 187.265625 152.148438 186.207031 152.882813 184.832031 C 153.882813 182.976563 156.636719 180.917969 153.582031 178.664063 C 152.644531 178.03125 152.71875 178.175781 153.675781 177.722656 C 155.378906 177.023438 157.214844 176.90625 158.449219 178.367188 C 159.5625 179.800781 159.71875 181.398438 158.765625 182.746094 C 158.160156 183.601563 157.320313 184.316406 156.53125 186.617188 C 155.585938 189.339844 156.535156 191.230469 155.558594 192.96875 C 154.945313 193.964844 154.09375 194.582031 153 194.816406 C 151.144531 195.199219 149.816406 193.941406 148.675781 192.117188 C 148.351563 191.648438 148.753906 191.726563 149.007813 191.78125 "/>
<path style=" stroke:none;fill-rule:evenodd;fill:rgb(89.4104%,9.411621%,9.803772%);fill-opacity:1;" d="M 142.882813 184.15625 L 146.550781 189.191406 C 147.28125 190.347656 148.355469 190.878906 149.566406 190.382813 C 150.074219 190.175781 150.484375 189.847656 150.710938 189.328125 C 151.015625 188.628906 150.972656 187.75 151.035156 186.8125 C 151.117188 185.867188 151.226563 184.945313 151.695313 184.1875 C 152.078125 183.570313 152.644531 182.933594 152.96875 182.261719 C 153.351563 181.46875 153.464844 180.632813 152.789063 179.75 C 152.433594 179.257813 151.859375 178.9375 151.195313 178.878906 C 150.507813 178.832031 149.964844 179.074219 149.300781 179.292969 L 143.984375 181.050781 C 143.648438 181.148438 143.519531 181.3125 143.539063 181.636719 C 143.644531 182.796875 143.132813 183.3125 142.761719 183.667969 C 142.691406 183.832031 142.75 184 142.882813 184.15625 "/>
<path style=" stroke:none;fill-rule:evenodd;fill:rgb(89.4104%,9.411621%,9.803772%);fill-opacity:1;" d="M 131.207031 191.78125 C 130.0625 191.949219 128.648438 191.625 128.074219 189.789063 C 128 189.550781 127.941406 189.285156 127.898438 188.996094 C 127.605469 187.265625 128.066406 186.207031 127.332031 184.832031 C 126.328125 182.976563 123.578125 180.917969 126.628906 178.664063 C 127.566406 178.03125 127.492188 178.175781 126.539063 177.722656 C 124.835938 177.023438 122.996094 176.90625 121.765625 178.367188 C 120.652344 179.800781 120.492188 181.398438 121.449219 182.746094 C 122.054688 183.601563 122.894531 184.316406 123.683594 186.617188 C 124.625 189.339844 123.679688 191.230469 124.65625 192.96875 C 125.269531 193.964844 126.117188 194.582031 127.214844 194.816406 C 129.070313 195.199219 130.394531 193.941406 131.539063 192.117188 C 131.859375 191.648438 131.457031 191.726563 131.207031 191.78125 "/>
<path style=" stroke:none;fill-rule:evenodd;fill:rgb(89.4104%,9.411621%,9.803772%);fill-opacity:1;" d="M 137.332031 184.15625 L 133.664063 189.191406 C 132.933594 190.347656 131.859375 190.878906 130.648438 190.382813 C 130.140625 190.175781 129.730469 189.847656 129.5 189.328125 C 129.199219 188.628906 129.242188 187.75 129.179688 186.8125 C 129.097656 185.867188 128.984375 184.945313 128.519531 184.1875 C 128.136719 183.570313 127.566406 182.933594 127.246094 182.261719 C 126.863281 181.46875 126.75 180.632813 127.421875 179.75 C 127.78125 179.257813 128.355469 178.9375 129.019531 178.878906 C 129.707031 178.832031 130.25 179.074219 130.914063 179.292969 L 136.226563 181.050781 C 136.480469 181.125 136.671875 181.25 136.714844 181.46875 C 136.546875 182.363281 136.929688 182.960938 137.40625 183.585938 C 137.542969 183.777344 137.488281 183.972656 137.332031 184.15625 "/>
<path style=" stroke:none;fill-rule:evenodd;fill:rgb(89.4104%,9.411621%,9.803772%);fill-opacity:1;" d="M 147.160156 192.996094 C 146.972656 194.136719 146.230469 195.386719 144.308594 195.371094 C 144.058594 195.371094 143.789063 195.347656 143.5 195.300781 C 141.761719 195.054688 140.894531 194.292969 139.359375 194.574219 C 137.289063 194.964844 134.492188 196.960938 133.269531 193.371094 C 132.953125 192.285156 133.070313 192.398438 132.347656 193.171875 C 131.164063 194.582031 130.492188 196.296875 131.507813 197.914063 C 132.535156 199.410156 134.011719 200.046875 135.585938 199.546875 C 136.585938 199.230469 137.523438 198.648438 139.953125 198.59375 C 142.832031 198.523438 144.347656 199.996094 146.300781 199.597656 C 147.433594 199.316406 148.28125 198.691406 148.835938 197.722656 C 149.765625 196.070313 148.96875 194.421875 147.582031 192.78125 C 147.234375 192.332031 147.183594 192.738281 147.160156 192.996094 "/>
<path style=" stroke:none;fill-rule:evenodd;fill:rgb(89.4104%,9.411621%,9.803772%);fill-opacity:1;" d="M 141.757813 184.84375 L 145.4375 189.867188 C 146.316406 190.914063 146.496094 192.101563 145.660156 193.101563 C 145.304688 193.523438 144.867188 193.8125 144.304688 193.875 C 143.542969 193.949219 142.722656 193.640625 141.808594 193.417969 C 140.882813 193.207031 139.96875 193.035156 139.105469 193.246094 C 138.402344 193.425781 137.625 193.773438 136.886719 193.878906 C 136.015625 194 135.183594 193.855469 134.546875 192.945313 C 134.1875 192.453125 134.054688 191.808594 134.203125 191.160156 C 134.363281 190.488281 134.761719 190.046875 135.171875 189.480469 L 138.460938 184.949219 C 138.617188 184.722656 138.800781 184.578125 139.035156 184.617188 C 140.058594 185.121094 140.867188 184.828125 141.25 184.652344 C 141.457031 184.515625 141.660156 184.691406 141.757813 184.84375 "/>
<path style=" stroke:none;fill-rule:nonzero;fill:rgb(99.606323%,74.508667%,32.548523%);fill-opacity:1;" d="M 142.269531 181.527344 C 142.269531 182.671875 141.34375 183.601563 140.195313 183.601563 C 139.046875 183.601563 138.121094 182.671875 138.121094 181.527344 C 138.121094 180.378906 139.046875 179.449219 140.195313 179.449219 C 141.34375 179.449219 142.269531 180.378906 142.269531 181.527344 "/>
<path style=" stroke:none;fill-rule:evenodd;fill:rgb(89.4104%,9.411621%,9.803772%);fill-opacity:1;" d="M 138.210938 161.214844 C 137.96875 161.011719 138.046875 160.949219 138.261719 160.6875 C 138.816406 159.949219 139.378906 159.164063 139.972656 158.21875 C 140.570313 159.164063 141.132813 159.949219 141.6875 160.6875 C 141.902344 160.949219 141.976563 161.011719 141.738281 161.214844 C 141.066406 161.792969 140.292969 162.515625 139.972656 163.8125 C 139.65625 162.515625 138.882813 161.792969 138.210938 161.214844 "/>
<path style=" stroke:none;fill-rule:evenodd;fill:rgb(89.4104%,9.411621%,9.803772%);fill-opacity:1;" d="M 158.789063 173.566406 C 158.917969 173.273438 158.996094 173.328125 159.3125 173.457031 C 160.179688 173.769531 161.097656 174.074219 162.175781 174.363281 C 161.449219 175.210938 160.863281 175.980469 160.324219 176.726563 C 160.136719 177.011719 160.101563 177.101563 159.832031 176.933594 C 159.082031 176.464844 158.164063 175.9375 156.832031 176.015625 C 157.976563 175.332031 158.4375 174.375 158.789063 173.566406 "/>
<path style=" stroke:none;fill-rule:evenodd;fill:rgb(89.4104%,9.411621%,9.803772%);fill-opacity:1;" d="M 120.285156 176.917969 C 120.015625 177.082031 119.980469 176.992188 119.796875 176.707031 C 119.269531 175.949219 118.695313 175.171875 117.980469 174.3125 C 119.066406 174.039063 119.988281 173.75 120.859375 173.449219 C 121.175781 173.328125 121.257813 173.273438 121.378906 173.566406 C 121.71875 174.382813 122.164063 175.34375 123.300781 176.046875 C 121.96875 175.945313 121.042969 176.460938 120.285156 176.917969 "/>
<path style=" stroke:none;fill-rule:evenodd;fill:rgb(89.4104%,9.411621%,9.803772%);fill-opacity:1;" d="M 153.394531 196.570313 C 153.710938 196.589844 153.683594 196.683594 153.667969 197.023438 C 153.667969 197.945313 153.691406 198.910156 153.785156 200.027344 C 152.738281 199.625 151.816406 199.335938 150.933594 199.078125 C 150.601563 198.996094 150.503906 198.996094 150.574219 198.6875 C 150.761719 197.820313 150.949219 196.78125 150.425781 195.550781 C 151.457031 196.398438 152.511719 196.507813 153.394531 196.570313 "/>
<path style=" stroke:none;fill-rule:evenodd;fill:rgb(89.4104%,9.411621%,9.803772%);fill-opacity:1;" d="M 129.746094 198.617188 C 129.820313 198.925781 129.722656 198.929688 129.394531 199.015625 C 128.515625 199.292969 127.597656 199.601563 126.5625 200.023438 C 126.632813 198.90625 126.632813 197.941406 126.613281 197.019531 C 126.59375 196.679688 126.566406 196.585938 126.878906 196.558594 C 127.761719 196.480469 128.8125 196.351563 129.828125 195.480469 C 129.328125 196.71875 129.539063 197.757813 129.746094 198.617188 "/>
</g>
</svg>
